<?xml version="1.0" encoding="UTF-8" standalone="no"?>
<!-- Created with Inkscape (http://www.inkscape.org/) -->
<svg id="svg2" xmlns:rdf="http://www.w3.org/1999/02/22-rdf-syntax-ns#" xmlns="http://www.w3.org/2000/svg" height="480" viewBox="0 0 480 480" width="480"
    version="1.1" xmlns:cc="http://creativecommons.org/ns#" xmlns:dc="http://purl.org/dc/elements/1.1/">
    <metadata id="metadata7">
        <rdf:RDF>
            <cc:Work rdf:about="">
                <dc:format>image/svg+xml</dc:format>
                <dc:type rdf:resource="http://purl.org/dc/dcmitype/StillImage" />
                <dc:title />
            </cc:Work>
        </rdf:RDF>
    </metadata>
    <g id="layer1">
        <g id="layer5" fill="#f00" transform="matrix(1.0004 0 0 .99997 -.091921 .0072612)">
            <path id="rect3487" fill="#f00"
                d="m238.91 114 0.008 0.004c-2.17 0-3.92 1.75-3.92 3.92v117.19a7 7 0 0 0 -2 4.89 7 7 0 0 0 7 7 7 7 0 0 0 7 -7 7 7 0 0 0 -2 -4.8965v-117.18c0-2.18-1.751-3.9297-3.9219-3.9297h-2.1641zm1.09 121a5 5 0 0 1 5 5 5 5 0 0 1 -5 5 5 5 0 0 1 -5 -5 5 5 0 0 1 5 -5z"
                transform="matrix(.99961 0 0 1 .091885 0)" />
        </g>
    </g>
    <g id="layer2" display="none">
        <g id="layer6" fill="#0f0" transform="translate(0,6e-4)">
            <path id="rect4299" fill="#0f0"
                d="m240 46.178c-1.939 0-3.5 1.2-3.5 2.6914v187.56a5 5 0 0 0 -1.5 3.57 5 5 0 0 0 5 5 5 5 0 0 0 5 -5 5 5 0 0 0 -1.5 -3.5644v-187.57c0-1.4914-1.561-2.6914-3.5-2.6914zm0 190.82a3 3 0 0 1 3 3 3 3 0 0 1 -3 3 3 3 0 0 1 -3 -3 3 3 0 0 1 3 -3z"
                transform="translate(0,-6e-4)" />
        </g>
    </g>
    <g id="layer3" display="none">
        <g id="layer7" fill="#00f">
            <path id="path4319" fill="#00f"
                d="m240 43.5c-0.17654 0-0.35307 0.03854-0.5 0.11719-0.10482 0.05611-0.19727 0.29688-0.19727 0.29687l-0.55078 75.006-0.8789 118.97a3 3 0 0 0 -0.87 2.11 3 3 0 0 0 0.8418 2.084l-0.3418 46.418 1.25 1.5 1.25 1.5 1.25-1.5 1.25-1.5-0.3418-46.422a3 3 0 0 0 0.84 -2.08 3 3 0 0 0 -0.87305 -2.1133l-0.875-118.96-0.54883-75.006s-0.0924-0.24078-0.19726-0.29688c-0.15-0.078-0.32-0.11719-0.5-0.11719l-0.01-0.006zm0 195.5a1 1 0 0 1 1 1 1 1 0 0 1 -1 1 1 1 0 0 1 -1 -1 1 1 0 0 1 1 -1z" />
        </g>
    </g>
</svg>
