<?xml version="1.0" encoding="UTF-8" standalone="no"?>
<!-- Created with Inkscape (http://www.inkscape.org/) -->

<svg
    xmlns:dc="http://purl.org/dc/elements/1.1/"
    xmlns:cc="http://creativecommons.org/ns#"
    xmlns:rdf="http://www.w3.org/1999/02/22-rdf-syntax-ns#"
    xmlns="http://www.w3.org/2000/svg"
    xmlns:sodipodi="http://sodipodi.sourceforge.net/DTD/sodipodi-0.dtd"
    xmlns:inkscape="http://www.inkscape.org/namespaces/inkscape"
    id="svg2"
    height="480"
    width="480"
    version="1.1"
    viewBox="0 0 480 480"
    inkscape:version="0.91 r13725"
    sodipodi:docname="hands_4.svg">
    <defs
        id="defs12" />
    <sodipodi:namedview
        pagecolor="#ffffff"
        bordercolor="#666666"
        borderopacity="1"
        objecttolerance="10"
        gridtolerance="10000"
        guidetolerance="10"
        inkscape:pageopacity="0"
        inkscape:pageshadow="2"
        inkscape:window-width="1440"
        inkscape:window-height="856"
        id="namedview10"
        showgrid="true"
        inkscape:zoom="1.3625"
        inkscape:cx="240"
        inkscape:cy="240"
        inkscape:window-x="0"
        inkscape:window-y="0"
        inkscape:window-maximized="1"
        inkscape:current-layer="layer1">
        <inkscape:grid
            type="xygrid"
            id="grid3351"
            dotted="true" />
    </sodipodi:namedview>
    <metadata
        id="metadata7">
        <rdf:RDF>
            <cc:Work
                rdf:about="">
                <dc:format>image/svg+xml</dc:format>
                <dc:type
                    rdf:resource="http://purl.org/dc/dcmitype/StillImage" />
                <dc:title></dc:title>
            </cc:Work>
        </rdf:RDF>
    </metadata>
    <g
        inkscape:groupmode="layer"
        id="layer1"
        inkscape:label="hour"
        style="display:inline">
        <g
            id="layer5"
            transform="matrix(1.0003912,0,0,0.9999706,-0.09192102,0.00726122)"
            style="fill:#ff0000">
            <path
                style="fill:#ff0000"
                d="M 238.91406 114 L 238.92188 114.00391 C 236.75067 114.00373 235 115.75389 235 117.92383 L 235 226.92773 A 14 14 0 0 0 226 240 A 14 14 0 0 0 240 254 A 14 14 0 0 0 254 240 A 14 14 0 0 0 245 226.94141 L 245 117.92969 C 245 115.74975 243.24897 114 241.07812 114 L 238.91406 114 z M 240 231.5 A 8.5 8.5 0 0 1 248.5 240 A 8.5 8.5 0 0 1 240 248.5 A 8.5 8.5 0 0 1 231.5 240 A 8.5 8.5 0 0 1 240 231.5 z "
                transform="matrix(0.99960895,0,0,1.0000294,0.09188507,-0.00726143)"
                id="rect3487" />
        </g>
    </g>
    <g
        inkscape:groupmode="layer"
        id="layer2"
        inkscape:label="minute"
        style="display:inline">
        <g
            id="layer6"
            transform="translate(0,6e-4)"
            style="fill:#00ff00">
            <path
                style="fill:#00ff00"
                d="m 240,46.177734 c -1.939,0 -3.5,1.200007 -3.5,2.691407 l 0,182.849609 A 9,9 0 0 0 231,240 a 9,9 0 0 0 9,9 9,9 0 0 0 9,-9 9,9 0 0 0 -5.5,-8.29102 l 0,-182.839839 c 0,-1.4914 -1.561,-2.691407 -3.5,-2.691407 z M 240,235.5 a 4.5,4.5 0 0 1 4.5,4.5 4.5,4.5 0 0 1 -4.5,4.5 4.5,4.5 0 0 1 -4.5,-4.5 4.5,4.5 0 0 1 4.5,-4.5 z"
                transform="translate(0,-6e-4)"
                id="rect4299"
                inkscape:connector-curvature="0" />
        </g>
    </g>
    <g
        inkscape:groupmode="layer"
        id="layer3"
        inkscape:label="second"
        style="display:inline">
        <g
            id="layer7"
            style="fill:#0000ff">
            <path
                style="fill:#0000ff"
                d="m240 43.5c-0.17654 0-1.2506 0.03854-1.3975 0.11719-0.10482 0.05611-0.19727 0.29688-0.19727 0.29687 0.70116 63.853-0.0427 127.7-0.51457 191.56-1.7618 0.82008-2.8888 2.5867-2.89 4.53 0.003 1.9153 1.0997 3.6606 2.8242 4.4941l-0.32422 44.008 1.25 1.5 1.25 1.5 1.25-1.5 1.25-1.5-0.32422-44.006c1.7254-0.83117 2.8244-2.5749 2.83-4.49-0.002-1.9425-1.1294-3.7078-2.8906-4.5273-0.59126-63.851-0.89894-127.7-1.1366-191.56 0 0-0.0924-0.24078-0.19726-0.29688-0.15-0.078-0.58966-0.11719-0.76966-0.11719v0.004zm0 194c1.3807 0 2.5 1.1193 2.5 2.5s-1.1193 2.5-2.5 2.5-2.5-1.1193-2.5-2.5 1.1193-2.5 2.5-2.5z"
                id="path4319"
                inkscape:connector-curvature="0" />
        </g>
    </g>
</svg>
