<?xml version="1.0" encoding="UTF-8" standalone="no"?>
<!-- Created with Inkscape (http://www.inkscape.org/) -->
<svg id="svg2" xmlns:rdf="http://www.w3.org/1999/02/22-rdf-syntax-ns#" xmlns="http://www.w3.org/2000/svg" height="480" width="480" version="1.1"
    xmlns:cc="http://creativecommons.org/ns#" xmlns:dc="http://purl.org/dc/elements/1.1/" viewBox="0 0 480 480">
    <metadata id="metadata7">
        <rdf:RDF>
            <cc:Work rdf:about="">
                <dc:format>image/svg+xml</dc:format>
                <dc:type rdf:resource="http://purl.org/dc/dcmitype/StillImage" />
                <dc:title />
            </cc:Work>
        </rdf:RDF>
    </metadata>
    <g id="layer5">
        <path id="rect3487" fill="#0ff"
            d="m238.92 114c-2.17 0-3.92 1.75-3.92 3.92v102.16c0 0.19029 0.0307 0.3718 0.0566 0.55469a20 20 0 0 0 -15.06 19.37 20 20 0 0 0 20 20 20 20 0 0 0 20 -20 20 20 0 0 0 -15.057 -19.354c0.0269-0.18593 0.0566-0.37085 0.0566-0.56445v-102.16c0-2.18-1.75-3.93-3.92-3.93h-2.1641zm1.08 114a12 12 0 0 1 12 12 12 12 0 0 1 -12 12 12 12 0 0 1 -12 -12 12 12 0 0 1 12 -12z" />
    </g>
    <g id="layer6">
        <path id="rect4299"
            d="m240 46.178c-1.939 0-3.5 1.2-3.5 2.6914v175.54a16 16 0 0 0 -12.5 15.59 16 16 0 0 0 16 16 16 16 0 0 0 16 -16 16 16 0 0 0 -12.5 -15.6v-175.53c0-1.4914-1.561-2.6914-3.5-2.6914zm0 184.82a9 9 0 0 1 9 9 9 9 0 0 1 -9 9 9 9 0 0 1 -9 -9 9 9 0 0 1 9 -9z"
            fill="#f0f" />
    </g>
    <g id="layer7">
        <path id="path4319"
            d="m240 43.5c-0.17654 0-0.35307 0.03854-0.5 0.11719-0.10482 0.05611-0.19727 0.29688-0.19727 0.29687l-0.55 75.006-0.81 110.28a11 11 0 0 0 -8.94 10.8 11 11 0 0 0 8.7773 10.771l-0.28 37.73 1.25 1.5 1.25 1.5 1.25-1.5 1.25-1.5-0.27734-37.738a11 11 0 0 0 8.78 -10.76 11 11 0 0 0 -8.94 -10.8l-0.81-110.28-0.55-75.006s-0.0924-0.24077-0.19727-0.29687c-0.15-0.078-0.32-0.117-0.5-0.117zm0 191.5a5 5 0 0 1 5 5 5 5 0 0 1 -5 5 5 5 0 0 1 -5 -5 5 5 0 0 1 5 -5z"
            fill="#f00" />
    </g>
</svg>
