<?xml version="1.0" encoding="UTF-8" standalone="no"?>
<!-- Created with Inkscape (http://www.inkscape.org/) -->
<svg id="svg2" xmlns:rdf="http://www.w3.org/1999/02/22-rdf-syntax-ns#" xmlns="http://www.w3.org/2000/svg" height="480" viewBox="0 0 480 480" width="480"
    version="1.1" xmlns:cc="http://creativecommons.org/ns#" xmlns:dc="http://purl.org/dc/elements/1.1/">
 <metadata id="metadata7">
  <rdf:RDF>
   <cc:Work rdf:about="">
    <dc:format>image/svg+xml</dc:format>
    <dc:type rdf:resource="http://purl.org/dc/dcmitype/StillImage" />
    <dc:title />
   </cc:Work>
  </rdf:RDF>
 </metadata>
 <g id="layer3">
  <g id="layer7" fill="#00f">
   <path id="path4319" fill="#00f"
       d="m240 43.5c-0.17654 0-1.2506 0.03854-1.3975 0.11719-0.10482 0.05611-0.19727 0.29688-0.19727 0.29687 0.70116 63.853-0.0427 127.7-0.51457 191.56-1.7618 0.82008-2.8888 2.5867-2.89 4.53 0.003 1.9153 1.0997 3.6606 2.8242 4.4941l-0.32422 44.008 1.25 1.5 1.25 1.5 1.25-1.5 1.25-1.5-0.32422-44.006c1.7254-0.83117 2.8244-2.5749 2.83-4.49-0.002-1.9425-1.1294-3.7078-2.8906-4.5273-0.59126-63.851-0.89894-127.7-1.1366-191.56 0 0-0.0924-0.24078-0.19726-0.29688-0.15-0.078-0.58966-0.11719-0.76966-0.11719v0.004zm0 194c1.3807 0 2.5 1.1193 2.5 2.5s-1.1193 2.5-2.5 2.5-2.5-1.1193-2.5-2.5 1.1193-2.5 2.5-2.5z" />
  </g>
 </g>
</svg>
