<?xml version="1.0" encoding="UTF-8" standalone="no"?>
<!-- Created with Inkscape (http://www.inkscape.org/) -->

<svg
    xmlns:dc="http://purl.org/dc/elements/1.1/"
    xmlns:cc="http://creativecommons.org/ns#"
    xmlns:rdf="http://www.w3.org/1999/02/22-rdf-syntax-ns#"
    xmlns="http://www.w3.org/2000/svg"
    xmlns:sodipodi="http://sodipodi.sourceforge.net/DTD/sodipodi-0.dtd"
    xmlns:inkscape="http://www.inkscape.org/namespaces/inkscape"
    width="480"
    height="480"
    viewBox="0 0 480 480"
    id="svg2"
    version="1.1"
    inkscape:version="0.91 r13725"
    sodipodi:docname="hands.svg">
    <defs
        id="defs4" />
    <sodipodi:namedview
        id="base"
        pagecolor="#ffffff"
        bordercolor="#666666"
        borderopacity="1.0"
        inkscape:pageopacity="0.0"
        inkscape:pageshadow="2"
        inkscape:zoom="1.24375"
        inkscape:cx="226.22015"
        inkscape:cy="251.67646"
        inkscape:document-units="px"
        inkscape:current-layer="layer4"
        showgrid="true"
        units="px"
        objecttolerance="1"
        inkscape:window-width="1440"
        inkscape:window-height="799"
        inkscape:window-x="0"
        inkscape:window-y="0"
        inkscape:window-maximized="1"
        inkscape:snap-global="false">
        <inkscape:grid
            type="xygrid"
            id="grid3421"
            spacingx="0.5"
            spacingy="0.5"
            empspacing="8" />
    </sodipodi:namedview>
    <metadata
        id="metadata7">
        <rdf:RDF>
            <cc:Work
                rdf:about="">
                <dc:format>image/svg+xml</dc:format>
                <dc:type
                    rdf:resource="http://purl.org/dc/dcmitype/StillImage" />
                <dc:title></dc:title>
            </cc:Work>
        </rdf:RDF>
    </metadata>
    <g
        inkscape:groupmode="layer"
        id="layer3"
        inkscape:label="Hour"
        style="display:inline">
        <path
            style="display:inline;fill:#00ff00;fill-opacity:1;stroke:none;stroke-width:1.37399995;stroke-miterlimit:4;stroke-dasharray:none"
            d="m 240,93 -5.5,6.5 -5.5,6.5 0,144 22,0 0,-144 -5.5,-6.5 L 240,93 Z m 0,143 a 4,4 0 0 1 4,4 4,4 0 0 1 -4,4 4,4 0 0 1 -4,-4 4,4 0 0 1 4,-4 z"
            id="path3450"
            inkscape:connector-curvature="0" />
    </g>
    <g
        inkscape:groupmode="layer"
        id="layer2"
        inkscape:label="Minute"
        style="display:inline">
        <path
            style="display:inline;fill:#ff0000;fill-opacity:1;stroke:none;stroke-width:1.37399995;stroke-miterlimit:4;stroke-dasharray:none"
            d="M 240 52 L 236 59 L 232 66 L 232 264 L 248 264 L 248 66 L 244 59 L 240 52 z M 240 236 A 4 4 0 0 1 244 240 A 4 4 0 0 1 240 244 A 4 4 0 0 1 236 240 A 4 4 0 0 1 240 236 z "
            id="rect3417" />
    </g>
    <g
        inkscape:groupmode="layer"
        id="layer4"
        inkscape:label="Second"
        style="display:inline">
        <path
            style="fill:#ff00ff;fill-opacity:1;stroke:none;stroke-width:1.37399995;stroke-miterlimit:4;stroke-dasharray:none"
            d="m 238.5,30 0,201.12695 A 9,9 0 0 0 231,240 a 9,9 0 0 0 7.5,8.86328 l 0,71.13672 3,0 0,-71.12695 A 9,9 0 0 0 249,240 9,9 0 0 0 241.5,231.13672 L 241.5,30 l -3,0 z m 1.5,206 a 4,4 0 0 1 4,4 4,4 0 0 1 -4,4 4,4 0 0 1 -4,-4 4,4 0 0 1 4,-4 z"
            id="rect3475"
            inkscape:connector-curvature="0" />
    </g>
</svg>
