<?xml version="1.0" encoding="UTF-8" standalone="no"?>
<!-- Created with Inkscape (http://www.inkscape.org/) -->
<svg id="svg2" xmlns:rdf="http://www.w3.org/1999/02/22-rdf-syntax-ns#" xmlns="http://www.w3.org/2000/svg" height="480" viewBox="0 0 480 480" width="480"
    version="1.1" xmlns:cc="http://creativecommons.org/ns#" xmlns:dc="http://purl.org/dc/elements/1.1/">
    <metadata id="metadata7">
        <rdf:RDF>
            <cc:Work rdf:about="">
                <dc:format>image/svg+xml</dc:format>
                <dc:type rdf:resource="http://purl.org/dc/dcmitype/StillImage" />
                <dc:title />
            </cc:Work>
        </rdf:RDF>
    </metadata>
    <g id="layer1">
        <g id="layer5" fill="#f00" transform="matrix(1.0004 0 0 .99997 -.091921 .0072612)">
            <path id="rect3487" fill="#f00"
                d="m238.91 114h0.01c-2.17 0-3.92 1.75-3.92 3.92v109.01a14 14 0 0 0 -9 13.07 14 14 0 0 0 14 14 14 14 0 0 0 14 -14 14 14 0 0 0 -9 -13.06v-109.01c0-2.18-1.75-3.93-3.92-3.93h-2.17zm1.09 117.5a8.5 8.5 0 0 1 8.5 8.5 8.5 8.5 0 0 1 -8.5 8.5 8.5 8.5 0 0 1 -8.5 -8.5 8.5 8.5 0 0 1 8.5 -8.5z"
                transform="matrix(.99961 0 0 1 .091885 -.0072614)" />
        </g>
    </g>
    <g id="layer2" display="none">
        <g id="layer6" fill="#0f0" transform="translate(0,6e-4)">
            <path id="rect4299" fill="#0f0"
                d="m240 46.178c-1.939 0-3.5 1.2-3.5 2.6914v182.85a9 9 0 0 0 -5.5 8.28 9 9 0 0 0 9 9 9 9 0 0 0 9 -9 9 9 0 0 0 -5.5 -8.291v-182.84c0-1.4914-1.561-2.6914-3.5-2.6914zm0 189.32a4.5 4.5 0 0 1 4.5 4.5 4.5 4.5 0 0 1 -4.5 4.5 4.5 4.5 0 0 1 -4.5 -4.5 4.5 4.5 0 0 1 4.5 -4.5z"
                transform="translate(0,-6e-4)" />
        </g>
    </g>
    <g id="layer3" display="none">
        <g id="layer7" fill="#00f">
            <path id="path4319" fill="#00f"
                d="m240 43.5c-0.17654 0-0.35307 0.03854-0.5 0.11719-0.10482 0.05611-0.19727 0.29688-0.19727 0.29687l-0.55078 75.006-0.86133 116.55a5 5 0 0 0 -2.89 4.53 5 5 0 0 0 2.8242 4.4941l-0.32422 44.008 1.25 1.5 1.25 1.5 1.25-1.5 1.25-1.5-0.32422-44.006a5 5 0 0 0 2.83 -4.49 5 5 0 0 0 -2.8906 -4.5273l-0.85743-116.55-0.54883-75.006s-0.0924-0.24078-0.19726-0.29688c-0.15-0.078-0.32-0.11719-0.5-0.11719v0.004zm0 194a2.5 2.5 0 0 1 2.5 2.5 2.5 2.5 0 0 1 -2.5 2.5 2.5 2.5 0 0 1 -2.5 -2.5 2.5 2.5 0 0 1 2.5 -2.5z" />
        </g>
    </g>
</svg>
